<svg width="900" height="140" viewBox="0 0 900 140" xmlns="http://www.w3.org/2000/svg" role="img" aria-label="Contribuições estilo Pac-Man">
  <rect width="900" height="140" fill="#0d1117" rx="12"/>

  <defs>
    <pattern id="grid" width="14" height="14" patternUnits="userSpaceOnUse">
      <rect x="0" y="0" width="10" height="10" rx="2" fill="#39d353"/>
    </pattern>
  </defs>

  <rect x="20" y="30" width="740" height="80" fill="url(#grid)" opacity="0.9" rx="6"/>

  <path d="M 40 42 L 160 42 L 160 64 L 240 64 L 240 54 L 310 54 L 310 98 L 420 98 L 420 80 L 510 80 L 510 42 L 620 42 L 620 98 L 720 98" stroke="#e6edf3" stroke-width="4" fill="none" stroke-linecap="round" stroke-linejoin="round" opacity="0.9"/>

  <g>
    <animateTransform attributeName="transform" type="translate" values="0 0; -120 0; 0 0" dur="3s" repeatCount="indefinite" />
    <path d="M 820 92 A 32 32 0 1 1 820 28 L 820 92 Z" fill="#f2d10b"/>
    <circle cx="832" cy="46" r="4" fill="#0d1117"/>
  </g>

  <circle cx="690" cy="86" r="7" fill="#ff6b6b"/>
  <circle cx="690" cy="86" r="3" fill="#0d1117"/>

  <circle cx="520" cy="58" r="7" fill="#4dabf7"/>
  <circle cx="520" cy="58" r="3" fill="#0d1117"/>

  <circle cx="380" cy="94" r="7" fill="#c77dff"/>
  <circle cx="380" cy="94" r="3" fill="#0d1117"/>

  <circle cx="775" cy="72" r="4" fill="#f2d10b"/>
  <circle cx="795" cy="72" r="4" fill="#f2d10b"/>
  <circle cx="815" cy="72" r="4" fill="#f2d10b"/>

  <text x="20" y="20" fill="#c9d1d9" font-size="12" font-family="Segoe UI, Arial, sans-serif">Contribuições estilo Pac-Man</text>
</svg>
