<svg width="920" height="150" viewBox="0 0 920 150" xmlns="http://www.w3.org/2000/svg" role="img" aria-label="Contribuições estilo Pac-Man">
  <rect width="920" height="150" fill="#0d1117" rx="12"/>

  <defs>
    <pattern id="grid" width="14" height="14" patternUnits="userSpaceOnUse">
      <rect x="0" y="0" width="10" height="10" rx="2" fill="#39d353"/>
    </pattern>
    <filter id="soft" x="-20%" y="-20%" width="140%" height="140%">
      <feDropShadow dx="0" dy="0" stdDeviation="1.2" flood-color="#000" flood-opacity="0.35"/>
    </filter>
  </defs>

  <rect x="20" y="30" width="760" height="90" fill="url(#grid)" opacity="0.9" rx="6"/>

  <path d="M 40 45 L 160 45 L 160 73 L 240 73 L 240 59 L 310 59 L 310 104 L 420 104 L 420 86 L 510 86 L 510 45 L 640 45 L 640 104 L 740 104" stroke="#e6edf3" stroke-width="4" fill="none" stroke-linecap="round" stroke-linejoin="round" opacity="0.9"/>

  <path d="M 830 92 A 34 34 0 1 1 830 24 L 830 92 Z" fill="#f2d10b" filter="url(#soft)"/>
  <circle cx="842" cy="44" r="4" fill="#0d1117"/>

  <circle cx="700" cy="90" r="8" fill="#ff6b6b" filter="url(#soft)"/>
  <circle cx="700" cy="90" r="3" fill="#0d1117"/>

  <circle cx="520" cy="60" r="8" fill="#4dabf7" filter="url(#soft)"/>
  <circle cx="520" cy="60" r="3" fill="#0d1117"/>

  <circle cx="380" cy="98" r="8" fill="#c77dff" filter="url(#soft)"/>
  <circle cx="380" cy="98" r="3" fill="#0d1117"/>

  <circle cx="785" cy="74" r="4" fill="#f2d10b"/>
  <circle cx="805" cy="74" r="4" fill="#f2d10b"/>
  <circle cx="825" cy="74" r="4" fill="#f2d10b"/>

  <text x="20" y="20" fill="#c9d1d9" font-size="12" font-family="Segoe UI, Arial, sans-serif">Contribuições estilo Pac-Man</text>
</svg>
